<?xml version="1.0" encoding="utf-8"?>
<!-- Generator: Adobe Illustrator 19.1.0, SVG Export Plug-In . SVG Version: 6.00 Build 0)  -->
<svg version="1.1" id="Layer_1" xmlns="http://www.w3.org/2000/svg" xmlns:xlink="http://www.w3.org/1999/xlink" x="0px" y="0px"
	 viewBox="0 0 27.4 16" style="enable-background:new 0 0 27.4 16;" xml:space="preserve">
<style type="text/css">
	.st0{fill:none;stroke:#010101;stroke-linecap:round;stroke-linejoin:round;stroke-miterlimit:10;}
	.st1{fill:none;stroke:#010101;stroke-linejoin:round;stroke-miterlimit:10;}
	.st2{fill:#FFFFFF;}
	.st3{fill:#F05323;}
	.st4{opacity:0.5;}
	.st5{fill:#FFFFFF;stroke:#E7E7E7;stroke-miterlimit:10;}
	.st6{fill:#333333;}
	.st7{fill:none;stroke:#F05323;stroke-width:2;stroke-miterlimit:10;}
	.st8{fill:#010101;}
</style>
<path class="st2" d="M27.3,7.6C27.1,7.3,21.2,0,13.7,0S0.4,7.3,0.1,7.6C0,7.9,0,8.1,0.1,8.4C0.4,8.7,6.3,16,13.7,16
	s13.3-7.3,13.6-7.6C27.5,8.1,27.5,7.9,27.3,7.6z M13.7,14.9c-6,0-11.1-5.4-12.4-6.9c1.3-1.5,6.4-6.9,12.4-6.9S24.8,6.5,26.1,8
	C24.8,9.5,19.7,14.9,13.7,14.9z M13.7,2.9c-2.8,0-5.1,2.3-5.1,5.1s2.3,5.1,5.1,5.1s5.1-2.3,5.1-5.1S16.5,2.9,13.7,2.9z M13.7,12
	c-2.2,0-4-1.8-4-4s1.8-4,4-4s4,1.8,4,4S15.9,12,13.7,12z M13.7,5.1c-0.3,0-0.6,0.3-0.6,0.6c0,0.3,0.3,0.6,0.6,0.6
	c0.9,0,1.7,0.8,1.7,1.7s-0.8,1.7-1.7,1.7S12,8.9,12,8c0-0.3-0.3-0.6-0.6-0.6S10.9,7.7,10.9,8c0,1.6,1.3,2.9,2.9,2.9s2.9-1.3,2.9-2.9
	S15.3,5.1,13.7,5.1z"/>
</svg>
