<?xml version="1.0" encoding="utf-8"?>
<!-- Generator: Adobe Illustrator 19.1.0, SVG Export Plug-In . SVG Version: 6.00 Build 0)  -->
<svg version="1.1" id="Layer_1" xmlns="http://www.w3.org/2000/svg" xmlns:xlink="http://www.w3.org/1999/xlink" x="0px" y="0px"
	 viewBox="0 0 33.4 33.4" style="enable-background:new 0 0 33.4 33.4;" xml:space="preserve">
<style type="text/css">
	.st0{fill:none;stroke:#010101;stroke-linecap:round;stroke-linejoin:round;stroke-miterlimit:10;}
	.st1{fill:none;stroke:#010101;stroke-linejoin:round;stroke-miterlimit:10;}
	.st2{fill:#FFFFFF;}
	.st3{fill:#F05323;}
	.st4{opacity:0.5;}
	.st5{fill:#FFFFFF;stroke:#E7E7E7;stroke-miterlimit:10;}
	.st6{fill:#333333;}
	.st7{fill:none;stroke:#F05323;stroke-width:2;stroke-miterlimit:10;}
	.st8{fill:#010101;}
</style>
<path class="st3" d="M32.7,13.9h-4c-0.3-1.1-0.6-2.3-1.1-3.2l2.8-2.8c0.1-0.1,0.2-0.3,0.2-0.5c0-0.2-0.1-0.4-0.2-0.5l-3.9-3.9
	c-0.3-0.3-0.7-0.3-1,0l-2.8,2.8c-0.9-0.5-2.1-0.8-3.2-1.1v-4c0-0.4-0.3-0.7-0.7-0.7h-4.2c-0.4,0-0.7,0.3-0.7,0.7v4
	c-1.1,0.3-2.3,0.6-3.2,1.1L7.9,2.9c-0.3-0.3-0.7-0.3-1,0L2.9,6.9c-0.3,0.3-0.3,0.7,0,1l2.8,2.8c-0.4,0.9-0.8,2.1-1.1,3.2h-4
	c-0.4,0-0.7,0.3-0.7,0.7v4.2c0,0.4,0.3,0.7,0.7,0.7h4c0.3,1.1,0.6,2.3,1.1,3.2l-2.8,2.8c-0.1,0.1-0.2,0.3-0.2,0.5
	c0,0.2,0.1,0.4,0.2,0.5l3.9,3.9c0.3,0.3,0.7,0.3,1,0l2.8-2.8c0.9,0.5,2.1,0.8,3.2,1.1v4c0,0.4,0.3,0.7,0.7,0.7h4.2
	c0.4,0,0.7-0.3,0.7-0.7v-4c1.1-0.3,2.3-0.6,3.2-1.1l2.8,2.8c0.3,0.3,0.7,0.3,1,0l3.9-3.9c0.3-0.3,0.3-0.7,0-1l-2.8-2.8
	c0.4-0.9,0.8-2.1,1.1-3.2h4c0.4,0,0.7-0.3,0.7-0.7v-4.2C33.4,14.2,33.1,13.9,32.7,13.9z M16.7,22.3c-3.1,0-5.6-2.5-5.6-5.6
	s2.5-5.6,5.6-5.6s5.6,2.5,5.6,5.6S19.8,22.3,16.7,22.3z"/>
</svg>
