<?xml version="1.0" encoding="utf-8"?>
<!-- Generator: Adobe Illustrator 19.1.0, SVG Export Plug-In . SVG Version: 6.00 Build 0)  -->
<svg version="1.1" id="Layer_1" xmlns="http://www.w3.org/2000/svg" xmlns:xlink="http://www.w3.org/1999/xlink" x="0px" y="0px"
	 viewBox="0 0 37.1 34" style="enable-background:new 0 0 37.1 34;" xml:space="preserve">
<style type="text/css">
	.st0{fill:none;stroke:#010101;stroke-linecap:round;stroke-linejoin:round;stroke-miterlimit:10;}
	.st1{fill:none;stroke:#010101;stroke-linejoin:round;stroke-miterlimit:10;}
	.st2{fill:#FFFFFF;}
	.st3{fill:#F05323;}
	.st4{opacity:0.5;}
	.st5{fill:#FFFFFF;stroke:#E7E7E7;stroke-miterlimit:10;}
	.st6{fill:#333333;}
	.st7{fill:none;stroke:#F05323;stroke-width:2;stroke-miterlimit:10;}
	.st8{fill:#010101;}
</style>
<g>
	<path class="st2" d="M37,0.5L37,0.5L37,0.3l-0.2-0.2l0,0l0,0C36.5,0,36.4,0,36.2,0l0,0l-0.2,0L0.5,14.7C0.2,14.9,0,15.1,0,15.5
		c0,0.3,0.2,0.6,0.5,0.7l13.4,5.2v11.8c0,0.3,0.2,0.7,0.6,0.7l0.2,0c0.3,0,0.5-0.1,0.7-0.4l5.1-8.7l9.3,5.1c0.1,0.1,0.2,0.1,0.4,0.1
		l0.3-0.1c0.2-0.1,0.4-0.3,0.4-0.5l6.2-28.6l0,0C37.1,0.8,37.1,0.6,37,0.5z M32.7,3.1L14.5,20L2.8,15.4L32.7,3.1z M15.5,30.4v-8.2
		l3.6,2L15.5,30.4z M29.6,28.2L16,20.7L35,3L29.6,28.2z"/>
</g>
</svg>
