<?xml version="1.0" encoding="UTF-8"?>
<!DOCTYPE svg PUBLIC "-//W3C//DTD SVG 1.1//EN" "http://www.w3.org/Graphics/SVG/1.1/DTD/svg11.dtd">




<svg version="1.1" xmlns="http://www.w3.org/2000/svg" xmlns:xlink="http://www.w3.org/1999/xlink" x="0" y="0" width="1024" height="1024" viewBox="0, 0, 1024, 1024">
 <defs>
  <style type="text/css">
   <![CDATA[
    @font-face {
        font-family: SanFranciscoText-Regular;
        src: url(SanFranciscoText-Regular.otf);
    }
   ]]>
 </style>

</defs>



    <path d="M512.5,906 C289.653,906 109,725.347 109,502.5 C109,279.653 289.653,99 512.5,99 C735.347,99 916,279.653 916,502.5 C916,725.347 735.347,906 512.5,906 z" fill-opacity="0" stroke="#ffffff" stroke-width="40" stroke-opacity="0.497"/>


    <text transform="matrix(1, 0, 0, 1, 460.427, 511.833)" x="-256.162" y="87" style="font-family: 'pemFontBold';" font-size="255" fill="#ffffff" fill-opacity="0.498">
    PEM
    </text>

    <path d="M770.356,551.833 C748.357,551.833 730.523,533.999 730.523,512 C730.523,490.001 748.357,472.167 770.356,472.167 C792.355,472.167 810.189,490.001 810.189,512 C810.189,533.999 792.355,551.833 770.356,551.833 z" fill="#ffffff" fill-opacity="0.496"/>

</svg>