<?xml version="1.0" encoding="utf-8"?>
<!-- Generator: Adobe Illustrator 19.1.0, SVG Export Plug-In . SVG Version: 6.00 Build 0)  -->
<svg version="1.1" id="Layer_1" xmlns="http://www.w3.org/2000/svg" xmlns:xlink="http://www.w3.org/1999/xlink" x="0px" y="0px"
	 viewBox="0 0 32.9 28.7" style="enable-background:new 0 0 32.9 28.7;" xml:space="preserve">
<style type="text/css">
	.st0{fill:none;stroke:#010101;stroke-linecap:round;stroke-linejoin:round;stroke-miterlimit:10;}
	.st1{fill:none;stroke:#010101;stroke-linejoin:round;stroke-miterlimit:10;}
	.st2{fill:#FFFFFF;}
	.st3{fill:#F05323;}
	.st4{opacity:0.5;}
	.st5{fill:#FFFFFF;stroke:#E7E7E7;stroke-miterlimit:10;}
	.st6{fill:#333333;}
	.st7{fill:none;stroke:#F05323;stroke-width:2;stroke-miterlimit:10;}
	.st8{fill:#010101;}
</style>
<g>
	<path class="st3" d="M18.4,17.3c-0.6-0.2-1.3-0.5-1.9-0.7V14c0.7-0.4,1.9-1.6,2-4c0.5-0.3,0.8-1,0.8-1.9c0-0.8-0.2-1.4-0.6-1.7
		C19,5.5,19.5,4,19.2,2.5C18.7,0.6,16.1,0,14,0C12.2,0,10,0.5,9.2,1.9c-1-0.1-1.5,0.4-1.7,0.7C6.7,3.5,7,5,7.4,6.4
		C7.3,6.5,7.1,6.7,7,6.9C6.8,7.2,6.7,7.7,6.7,8.1C6.7,9,7,9.7,7.6,10c0.1,2.4,1.4,3.6,2,4v2.6C9,16.8,8.4,17,7.8,17.2
		c-3.5,1.3-6.6,2.4-7.1,4.1C0,23.3,0,27.8,0,28c0,0.4,0.3,0.7,0.7,0.7h24.7c0.4,0,0.7-0.3,0.7-0.7c0-0.2,0-4.7-0.7-6.7
		C24.8,19.6,22,18.5,18.4,17.3z"/>
	<path class="st3" d="M32.2,21.3c-0.5-1.6-3.1-3.2-8.9-5.4v-1.2c0.7-0.4,1.9-1.6,2-4c0.5-0.3,0.8-1,0.8-1.9c0-0.8-0.2-1.4-0.7-1.7
		c0.3-0.9,0.9-2.6,0.5-4.2c-0.2-1-1.3-2-2.5-2.5c-1.2-0.4-2.3-0.3-3.3,0.3c-0.3,0.2-0.4,0.6-0.2,1c0.2,0.3,0.6,0.4,1,0.2
		c0.8-0.5,1.5-0.4,2-0.2c1,0.4,1.6,1.2,1.7,1.6c0.3,1.2-0.2,2.6-0.5,3.4C24,7.1,24,7.2,24,7.4c0,0.4,0.2,0.7,0.6,0.7
		c0,0,0.2,0.3,0.2,0.7c0,0.4-0.1,0.7-0.1,0.7c-0.4,0-0.7,0.3-0.7,0.7c0,2.7-1.6,3.5-1.6,3.5c-0.3,0.1-0.4,0.4-0.4,0.6v2.1
		c0,0.3,0.2,0.5,0.4,0.6c2,0.7,8,3,8.5,4.7c0.5,1.4,0.6,4.3,0.6,5.6h-2c-0.4,0-0.7,0.3-0.7,0.7c0,0.4,0.3,0.7,0.7,0.7h2.7
		c0.4,0,0.7-0.3,0.7-0.7C32.9,27.8,32.9,23.3,32.2,21.3z"/>
</g>
</svg>
