<?xml version="1.0" encoding="utf-8"?>
<!-- Generator: Adobe Illustrator 19.1.0, SVG Export Plug-In . SVG Version: 6.00 Build 0)  -->
<svg version="1.1" id="Layer_1" xmlns="http://www.w3.org/2000/svg" xmlns:xlink="http://www.w3.org/1999/xlink" x="0px" y="0px"
	 viewBox="0 0 17.5 21" style="enable-background:new 0 0 17.5 21;" xml:space="preserve">
<style type="text/css">
	.st0{fill:none;stroke:#010101;stroke-linecap:round;stroke-linejoin:round;stroke-miterlimit:10;}
	.st1{fill:none;stroke:#010101;stroke-linejoin:round;stroke-miterlimit:10;}
	.st2{fill:#FFFFFF;}
	.st3{fill:#F05323;}
	.st4{opacity:0.5;}
	.st5{fill:#FFFFFF;stroke:#E7E7E7;stroke-miterlimit:10;}
	.st6{fill:#333333;}
	.st7{fill:none;stroke:#F05323;stroke-width:2;stroke-miterlimit:10;}
	.st8{fill:#010101;}
</style>
<path class="st2" d="M15.2,6.4l1-1l0.1,0.1c0.1,0.1,0.2,0.1,0.3,0.1s0.2,0,0.3-0.1c0.2-0.2,0.2-0.4,0-0.6l-0.9-0.9
	c-0.2-0.2-0.4-0.2-0.6,0c-0.2,0.2-0.2,0.4,0,0.6l0.1,0.1l-1,1c-1.1-1-2.5-1.8-4.1-2.1V0.9h0.9c0.2,0,0.4-0.2,0.4-0.4S11.6,0,11.4,0
	H6.1C5.9,0,5.7,0.2,5.7,0.4s0.2,0.4,0.4,0.4H7v2.8C3,4.5,0,8,0,12.2C0,17.1,3.9,21,8.8,21s8.8-3.9,8.8-8.8
	C17.5,10,16.6,7.9,15.2,6.4z M7.9,0.9h1.8v2.7c-0.3,0-0.6,0-0.9,0s-0.6,0-0.9,0V0.9z M8.8,20.1c-4.3,0-7.9-3.5-7.9-7.9
	s3.5-7.9,7.9-7.9s7.9,3.5,7.9,7.9S13.1,20.1,8.8,20.1z M5.1,8C5,7.8,4.7,7.8,4.5,8c-0.2,0.2-0.2,0.4,0,0.6l3.9,3.9
	c0.1,0.1,0.2,0.1,0.3,0.1s0.2,0,0.3-0.1c0.2-0.2,0.2-0.4,0-0.6L5.1,8z"/>
</svg>
