<?xml version="1.0" encoding="utf-8"?>
<!-- Generator: Adobe Illustrator 19.1.0, SVG Export Plug-In . SVG Version: 6.00 Build 0)  -->
<svg version="1.1" id="Layer_1" xmlns="http://www.w3.org/2000/svg" xmlns:xlink="http://www.w3.org/1999/xlink" x="0px" y="0px"
	 viewBox="0 0 16 21.3" style="enable-background:new 0 0 16 21.3;" xml:space="preserve">
<style type="text/css">
	.st0{fill:none;stroke:#010101;stroke-linecap:round;stroke-linejoin:round;stroke-miterlimit:10;}
	.st1{fill:none;stroke:#010101;stroke-linejoin:round;stroke-miterlimit:10;}
	.st2{fill:#FFFFFF;}
	.st3{fill:#F05323;}
	.st4{opacity:0.5;}
	.st5{fill:#FFFFFF;stroke:#E7E7E7;stroke-miterlimit:10;}
	.st6{fill:#333333;}
	.st7{fill:none;stroke:#F05323;stroke-width:2;stroke-miterlimit:10;}
	.st8{fill:#010101;}
</style>
<path class="st2" d="M8,12.4c-0.5,0-0.9,0.4-0.9,0.9c0,0.3,0.2,0.6,0.4,0.8v2.4c0,0.2,0.2,0.4,0.4,0.4c0.2,0,0.4-0.2,0.4-0.4v-2.4
	c0.3-0.2,0.4-0.4,0.4-0.8C8.9,12.8,8.5,12.4,8,12.4z M15.6,8h-2.2V5.3C13.3,2.4,10.9,0,8,0S2.7,2.4,2.7,5.3V8H0.4C0.2,8,0,8.2,0,8.4
	v12.4c0,0.2,0.2,0.4,0.4,0.4h15.1c0.2,0,0.4-0.2,0.4-0.4V8.4C16,8.2,15.8,8,15.6,8z M3.6,5.3c0-2.5,2-4.4,4.4-4.4s4.4,2,4.4,4.4V8
	H3.6V5.3z M15.1,20.4H0.9V8.9h14.2V20.4z"/>
</svg>
