<?xml version="1.0" encoding="utf-8"?>
<!-- Generator: Adobe Illustrator 19.1.0, SVG Export Plug-In . SVG Version: 6.00 Build 0)  -->
<svg version="1.1" id="Layer_1" xmlns="http://www.w3.org/2000/svg" xmlns:xlink="http://www.w3.org/1999/xlink" x="0px" y="0px"
	 viewBox="0 0 34.4 34" style="enable-background:new 0 0 34.4 34;" xml:space="preserve">
<style type="text/css">
	.st0{fill:none;stroke:#010101;stroke-linecap:round;stroke-linejoin:round;stroke-miterlimit:10;}
	.st1{fill:none;stroke:#010101;stroke-linejoin:round;stroke-miterlimit:10;}
	.st2{fill:#FFFFFF;}
	.st3{fill:#F05323;}
	.st4{opacity:0.5;}
	.st5{fill:#FFFFFF;stroke:#E7E7E7;stroke-miterlimit:10;}
	.st6{fill:#333333;}
	.st7{fill:none;stroke:#F05323;stroke-width:2;stroke-miterlimit:10;}
	.st8{fill:#010101;}
</style>
<path class="st3" d="M20.5,21.1c0.3-3.1,2.9-5.5,6.1-5.5c1.6,0,3,0.6,4.1,1.6v-16c0-0.4-0.3-0.7-0.7-0.7H1.2c-0.4,0-0.7,0.3-0.7,0.7
	v19.3c0,0.4,0.3,0.7,0.7,0.7H6v4.8c0,0.3,0.2,0.5,0.4,0.6c0.1,0,0.2,0.1,0.3,0.1c0.2,0,0.4-0.1,0.5-0.2l5.3-5.3H20.5L20.5,21.1z"/>
<path class="st3" d="M33.1,22.5h-1.4v-0.7c0-2.7-2.2-4.8-4.8-4.8s-4.8,2.2-4.8,4.8v0.7h-1.4c-0.4,0-0.7,0.3-0.7,0.7v9.6
	c0,0.4,0.3,0.7,0.7,0.7h12.4c0.4,0,0.7-0.3,0.7-0.7v-9.6C33.7,22.8,33.4,22.5,33.1,22.5z M27.6,27.8v2.3c0,0.4-0.3,0.7-0.7,0.7
	c-0.4,0-0.7-0.3-0.7-0.7v-2.3c-0.4-0.2-0.7-0.7-0.7-1.2c0-0.8,0.6-1.4,1.4-1.4c0.8,0,1.4,0.6,1.4,1.4C28.2,27.1,28,27.6,27.6,27.8z
	 M30.3,22.5h-6.9v-0.7c0-1.9,1.5-3.4,3.4-3.4c1.9,0,3.4,1.5,3.4,3.4V22.5z"/>
</svg>
