<?xml version="1.0" encoding="utf-8"?>
<!-- Generator: Adobe Illustrator 19.1.0, SVG Export Plug-In . SVG Version: 6.00 Build 0)  -->
<svg version="1.1" id="Layer_1" xmlns="http://www.w3.org/2000/svg" xmlns:xlink="http://www.w3.org/1999/xlink" x="0px" y="0px"
	 viewBox="0 0 36 36" style="enable-background:new 0 0 36 36;" xml:space="preserve">
<style type="text/css">
	.st0{fill:none;stroke:#010101;stroke-linecap:round;stroke-linejoin:round;stroke-miterlimit:10;}
	.st1{fill:none;stroke:#010101;stroke-linejoin:round;stroke-miterlimit:10;}
	.st2{fill:#FFFFFF;}
	.st3{fill:#F05323;}
	.st4{opacity:0.5;}
	.st5{fill:#FFFFFF;stroke:#E7E7E7;stroke-miterlimit:10;}
	.st6{fill:#333333;}
	.st7{fill:none;stroke:#F05323;stroke-width:2;stroke-miterlimit:10;}
	.st8{fill:#010101;}
</style>
<g>
	<path class="st2" d="M29.2,15.7c-0.4,0-0.7,0.3-0.7,0.7v18h-27v-30h23.2c0.4,0,0.7-0.3,0.7-0.7S25.2,3,24.7,3h-24
		C0.3,3,0,3.3,0,3.7v31.5C0,35.6,0.3,36,0.7,36h28.5c0.4,0,0.7-0.3,0.7-0.7V16.5C30,16,29.7,15.7,29.2,15.7z M35.8,1.4
		c-0.6-1.4-2.6-1.9-3.7-0.8L17.8,14.9l-0.1,0.2l-2.1,4.2c-0.1,0.3-0.1,0.6,0.1,0.9c0.1,0.1,0.3,0.2,0.5,0.2c0.1,0,0.2,0,0.3-0.1
		l4.2-2.1l0.2-0.1L35.3,3.8C36,3.1,36.2,2.2,35.8,1.4z M20,17L17.9,18l1.1-2.1L30.5,4.3l1.1,1.1L20,17z M34.3,2.8l-1.6,1.6l-1.1-1.1
		l1.6-1.6c0.4-0.4,1-0.2,1.2,0.3C34.6,2.3,34.5,2.5,34.3,2.8z"/>
</g>
</svg>
