<?xml version="1.0" encoding="utf-8"?>
<!-- Generator: Adobe Illustrator 19.1.0, SVG Export Plug-In . SVG Version: 6.00 Build 0)  -->
<svg version="1.1" id="Layer_1" xmlns="http://www.w3.org/2000/svg" xmlns:xlink="http://www.w3.org/1999/xlink" x="0px" y="0px"
	 viewBox="0 0 128.1 109.4" style="enable-background:new 0 0 128.1 109.4;" xml:space="preserve">
<style type="text/css">
	.st0{fill:none;stroke:#010101;stroke-linecap:round;stroke-linejoin:round;stroke-miterlimit:10;}
	.st1{fill:none;stroke:#010101;stroke-linejoin:round;stroke-miterlimit:10;}
	.st2{fill:#FFFFFF;}
	.st3{fill:#F05323;}
	.st4{opacity:0.5;}
	.st5{fill:#FFFFFF;stroke:#E7E7E7;stroke-miterlimit:10;}
	.st6{fill:#333333;}
	.st7{fill:none;stroke:#F05323;stroke-width:2;stroke-miterlimit:10;}
	.st8{fill:#010101;}
</style>
<g>
	<g>
		<g>
			<path fill="#F05323" d="M111.3,37.3l-4-1.4v-5.7c1-1,2.7-3.4,2.9-8.4c1.4-0.6,2.3-2.2,2.3-4.1c0-1.7-0.7-3.1-1.7-3.8
				c1-1.9,2.5-5.2,1.7-8.4c-1-4-6.7-5.4-11.3-5.4c-4.1,0-9,1.1-10.8,4.1c-2.2-0.1-3.3,0.8-3.9,1.5c-1.8,2.3-0.8,6.2-0.2,8.3l0.2,0.7
				v5.9c0,5.6,3.5,8.7,5.9,9.9v5.4l-3.7,1.3c-7.7,2.8-14.4,5.2-15.7,8.9c-1.5,4.4-1.5,14.3-1.5,14.7c0,0.8,0.7,1.5,1.5,1.5h53.5
				c0.8,0,1.5-0.7,1.5-1.5c0-0.4,0-10.2-1.5-14.7C125.4,42.4,119.2,40.2,111.3,37.3z M74.7,59.3c0.1-2.9,0.3-9.2,1.3-12.3
				c0.8-2.3,8-4.9,13.9-7c1.6-0.6,3.1-1.1,4.7-1.7c0.6-0.2,1-0.8,1-1.4v-7.4c0-0.6-0.4-1.2-1-1.4c-0.2-0.1-4.9-1.7-4.9-7.5v-5.9
				c0-0.3-0.1-0.7-0.3-1.4C88.9,12,88,8.6,88.9,7.5c0.1-0.1,0.7-0.6,2.2-0.3c0.8,0.2,1.5-0.3,1.7-1.1c0.4-1.8,4.1-3.1,8.4-3.1
				c4.3,0,8,1.3,8.4,3.1c0.6,2.4-0.8,5.2-1.6,6.7c-0.4,0.8-0.7,1.3-0.7,1.9c0,0.8,0.7,1.5,1.5,1.5c0.5,0,0.7,0.9,0.7,1.5
				c0,0.6-0.2,1.5-0.7,1.5c-0.8,0-1.5,0.7-1.5,1.5c0,6-2.3,7.7-2.3,7.7c-0.4,0.3-0.7,0.7-0.7,1.3v7.4c0,0.6,0.4,1.2,1,1.4
				c1.7,0.6,3.4,1.2,5,1.8c6.3,2.3,12.8,4.6,13.5,6.9c1,3,1.3,9.4,1.3,12.3L74.7,59.3L74.7,59.3z"/>
		</g>
	</g>
	<g>
		<g>
			<path fill="#F05323" d="M39.6,49.8l-4-1.4v-5.7c1-1,2.7-3.4,2.9-8.4c1.4-0.6,2.3-2.2,2.3-4.1c0-1.7-0.7-3.1-1.7-3.8
				c1-1.9,2.5-5.2,1.7-8.4c-1-4-6.7-5.4-11.3-5.4c-4.1,0-9,1.1-10.8,4.1c-2.2-0.1-3.3,0.8-3.9,1.5c-1.8,2.3-0.8,6.2-0.2,8.3l0.2,0.7
				v5.9c0,5.6,3.5,8.7,5.9,9.9v5.4l-3.7,1.3c-7.7,2.8-14.4,5.2-15.7,8.9C0,63,0,72.9,0,73.3c0,0.8,0.7,1.5,1.5,1.5H55
				c0.8,0,1.5-0.7,1.5-1.5c0-0.4,0-10.2-1.5-14.7C53.7,54.9,47.5,52.7,39.6,49.8z M3,71.8c0.1-2.9,0.3-9.2,1.3-12.3
				c0.8-2.3,8-4.9,13.9-7c1.6-0.6,3.1-1.1,4.7-1.7c0.6-0.2,1-0.8,1-1.4V42c0-0.6-0.4-1.2-1-1.4c-0.2-0.1-4.9-1.7-4.9-7.5v-5.9
				c0-0.3-0.1-0.7-0.3-1.4c-0.3-1.3-1.2-4.6-0.3-5.8c0.1-0.1,0.7-0.6,2.2-0.3c0.8,0.2,1.5-0.3,1.7-1.1c0.4-1.8,4.1-3.1,8.4-3.1
				s8,1.3,8.4,3.1c0.6,2.4-0.8,5.2-1.6,6.7c-0.4,0.8-0.7,1.3-0.7,1.9c0,0.8,0.7,1.5,1.5,1.5c0.5,0,0.7,0.9,0.7,1.5
				c0,0.6-0.2,1.5-0.7,1.5c-0.8,0-1.5,0.7-1.5,1.5c0,6-2.3,7.7-2.3,7.7C33,41,32.7,41.5,32.7,42v7.4c0,0.6,0.4,1.2,1,1.4
				c1.7,0.6,3.4,1.2,5,1.8c6.3,2.3,12.8,4.6,13.5,6.9c1,3,1.3,9.4,1.3,12.3L3,71.8L3,71.8z"/>
		</g>
	</g>
	<g>
		<g>
			<path fill="#010101" d="M68.5,46.6c-17.3,0-31.4,14.1-31.4,31.4s14.1,31.4,31.4,31.4S99.9,95.3,99.9,78S85.8,46.6,68.5,46.6z
				 M79,70.1c0-5.8-4.7-10.5-10.5-10.5S58,64.4,58,70.1c0,3.7,1.9,7.1,5,8.9l-2.4,15.7c-0.1,0.4,0,0.8,0.3,1.1
				c0.2,0.3,0.6,0.5,1,0.5H75c0.4,0,0.7-0.2,1-0.5c0.2-0.3,0.4-0.7,0.3-1.1l-2.4-15.7C77.1,77.2,79,73.9,79,70.1z M71.9,77.2
				c-0.5,0.3-0.8,0.8-0.7,1.4l2.3,15.1h-10l2.3-15.1c0.1-0.6-0.2-1.1-0.7-1.4c-2.7-1.3-4.4-4-4.4-7.1c0-4.3,3.5-7.9,7.9-7.9
				c4.3,0,7.9,3.5,7.9,7.9C76.3,73.2,74.6,75.9,71.9,77.2z"/>
		</g>
	</g>
	<g>
		<g>
			<path fill="#F05323" d="M68.5,46.6c-17.3,0-31.4,14.1-31.4,31.4s14.1,31.4,31.4,31.4S99.9,95.3,99.9,78S85.8,46.6,68.5,46.6z
				 M68.5,106.8c-15.9,0-28.8-12.9-28.8-28.8s12.9-28.8,28.8-28.8S97.3,62.1,97.3,78S84.4,106.8,68.5,106.8z M79,70.1
				c0-5.8-4.7-10.5-10.5-10.5S58,64.4,58,70.1c0,3.7,1.9,7.1,5,8.9l-2.4,15.7c-0.1,0.4,0,0.8,0.3,1.1c0.2,0.3,0.6,0.5,1,0.5H75
				c0.4,0,0.7-0.2,1-0.5c0.2-0.3,0.4-0.7,0.3-1.1l-2.4-15.7C77.1,77.2,79,73.9,79,70.1z M71.9,77.2c-0.5,0.3-0.8,0.8-0.7,1.4
				l2.3,15.1h-10l2.3-15.1c0.1-0.6-0.2-1.1-0.7-1.4c-2.7-1.3-4.4-4-4.4-7.1c0-4.3,3.5-7.9,7.9-7.9c4.3,0,7.9,3.5,7.9,7.9
				C76.3,73.2,74.6,75.9,71.9,77.2z"/>
		</g>
	</g>
</g>
</svg>
