<?xml version="1.0" encoding="utf-8"?>
<!-- Generator: Adobe Illustrator 19.1.0, SVG Export Plug-In . SVG Version: 6.00 Build 0)  -->
<svg version="1.1" id="Layer_1" xmlns="http://www.w3.org/2000/svg" xmlns:xlink="http://www.w3.org/1999/xlink" x="0px" y="0px"
	 viewBox="0 0 41.7 31.2" style="enable-background:new 0 0 41.7 31.2;" xml:space="preserve">
<style type="text/css">
	.st0{fill:none;stroke:#010101;stroke-linecap:round;stroke-linejoin:round;stroke-miterlimit:10;}
	.st1{fill:none;stroke:#010101;stroke-linejoin:round;stroke-miterlimit:10;}
	.st2{fill:#FFFFFF;}
	.st3{fill:#F05323;}
	.st4{opacity:0.5;}
	.st5{fill:#FFFFFF;stroke:#E7E7E7;stroke-miterlimit:10;}
	.st6{fill:#333333;}
	.st7{fill:none;stroke:#F05323;stroke-width:2;stroke-miterlimit:10;}
	.st8{fill:#010101;}
</style>
<g>
	<path class="st3" d="M37.2,5.2h-2.8l-1.6-3.1C31.9,0.8,30.7,0,29.5,0h-8.7c-1.2,0-2.4,0.8-3.3,2.1l-2.3,3.1h-4.8V4.3
		c0-1.4-1.3-2.6-2.7-2.6H6.1c-1.4,0-2.6,1.2-2.6,2.6l0,1C0.7,5.6,0,7.5,0,9.1v18c0,2.6,1.6,4.1,4.4,4.1h32.8c2.8,0,4.4-1.5,4.4-4.1
		v-18C41.7,7.3,40.9,5.2,37.2,5.2z M6.1,3.5h1.6c0.5,0,1,0.4,1,0.9v0.9H5.2l0-0.9C5.3,3.9,5.7,3.5,6.1,3.5z M39.9,27.1
		c0,1.7-0.8,2.4-2.7,2.4H4.4c-1.9,0-2.7-0.7-2.7-2.4v-18c0-1.3,0.4-2.1,2.6-2.1h11.3c0.3,0,0.5-0.1,0.7-0.3L19,3.1
		c0.3-0.5,1-1.3,1.9-1.3h8.7c0.9,0,1.5,0.8,1.8,1.3l1.7,3.5c0.1,0.3,0.4,0.5,0.8,0.5h3.4c2.5,0,2.7,1,2.7,2.1V27.1z M25.2,6.9
		c-5.7,0-10.4,4.7-10.4,10.4s4.7,10.4,10.4,10.4s10.4-4.7,10.4-10.4S30.9,6.9,25.2,6.9z M25.2,26c-4.8,0-8.7-3.9-8.7-8.7
		s3.9-8.7,8.7-8.7s8.7,3.9,8.7,8.7S30,26,25.2,26z M25.2,11.3c-3.4,0-6.1,2.7-6.1,6.1s2.7,6.1,6.1,6.1s6.1-2.7,6.1-6.1
		S28.5,11.3,25.2,11.3z M25.2,21.7c-2.4,0-4.3-1.9-4.3-4.3s1.9-4.3,4.3-4.3s4.3,1.9,4.3,4.3S27.6,21.7,25.2,21.7z M6.9,8.7
		c-1.9,0-3.5,1.6-3.5,3.5s1.6,3.5,3.5,3.5s3.5-1.6,3.5-3.5S8.9,8.7,6.9,8.7z M6.9,13.9c-1,0-1.7-0.8-1.7-1.7s0.8-1.7,1.7-1.7
		s1.7,0.8,1.7,1.7S7.9,13.9,6.9,13.9z"/>
</g>
</svg>
