<?xml version="1.0" encoding="utf-8"?>
<!-- Generator: Adobe Illustrator 19.1.0, SVG Export Plug-In . SVG Version: 6.00 Build 0)  -->
<svg version="1.1" id="Layer_1" xmlns="http://www.w3.org/2000/svg" xmlns:xlink="http://www.w3.org/1999/xlink" x="0px" y="0px"
	 viewBox="0 0 33 33" style="enable-background:new 0 0 33 33;" xml:space="preserve">
<style type="text/css">
	.st0{fill:none;stroke:#010101;stroke-linecap:round;stroke-linejoin:round;stroke-miterlimit:10;}
	.st1{fill:none;stroke:#010101;stroke-linejoin:round;stroke-miterlimit:10;}
	.st2{fill:#FFFFFF;}
	.st3{fill:#F05323;}
	.st4{opacity:0.5;}
	.st5{fill:#FFFFFF;stroke:#E7E7E7;stroke-miterlimit:10;}
	.st6{fill:#333333;}
	.st7{fill:none;stroke:#F05323;stroke-width:2;stroke-miterlimit:10;}
	.st8{fill:#010101;}
</style>
<path class="st2" d="M32.3,13.8h-3.9c-0.3-1.1-0.6-2.3-1.1-3.2l2.8-2.8c0.1-0.1,0.2-0.3,0.2-0.5s-0.1-0.4-0.2-0.5l-3.9-3.9
	c-0.3-0.3-0.7-0.3-1,0l-2.8,2.8c-0.9-0.4-2.1-0.8-3.2-1.1V0.7c0-0.4-0.3-0.7-0.7-0.7h-4.1c-0.4,0-0.7,0.3-0.7,0.7v3.9
	c-1.1,0.3-2.3,0.6-3.2,1.1L7.7,2.9c-0.3-0.3-0.7-0.3-1,0L2.9,6.8C2.8,6.9,2.7,7.1,2.7,7.3c0,0.2,0.1,0.4,0.2,0.5l2.8,2.8
	c-0.4,0.9-0.8,2.1-1.1,3.2H0.7c-0.4,0-0.7,0.3-0.7,0.7v4.1c0,0.4,0.3,0.7,0.7,0.7h3.9c0.3,1.1,0.6,2.3,1.1,3.2l-2.8,2.8
	c-0.1,0.1-0.2,0.3-0.2,0.5c0,0.2,0.1,0.4,0.2,0.5l3.9,3.9c0.3,0.3,0.7,0.3,1,0l2.8-2.8c0.9,0.4,2.1,0.8,3.2,1.1v3.9
	c0,0.4,0.3,0.7,0.7,0.7h4.1c0.4,0,0.7-0.3,0.7-0.7v-3.9c1.1-0.3,2.3-0.6,3.2-1.1l2.8,2.8c0.3,0.3,0.7,0.3,1,0l3.9-3.9
	c0.3-0.3,0.3-0.7,0-1l-2.8-2.8c0.4-0.9,0.8-2.1,1.1-3.2h3.9c0.4,0,0.7-0.3,0.7-0.7v-4.1C33,14.1,32.7,13.7,32.3,13.8z M31.6,17.9
	h-3.8c-0.3,0-0.6,0.2-0.7,0.5c-0.2,0.8-0.7,2.8-1.3,3.8c-0.2,0.3-0.1,0.6,0.1,0.8l2.7,2.7l-2.9,2.9L23.1,26
	c-0.2-0.2-0.6-0.3-0.8-0.1c-1,0.6-3.1,1.1-3.8,1.3c-0.3,0.1-0.5,0.4-0.5,0.7v3.8h-2.8v-3.8c0-0.3-0.2-0.6-0.5-0.7
	c-0.8-0.2-2.8-0.7-3.8-1.3c-0.3-0.2-0.6-0.1-0.8,0.1l-2.7,2.7l-2.9-2.9L7,23.1c0.2-0.2,0.3-0.6,0.1-0.8c-0.6-1-1.1-3.1-1.3-3.8
	c-0.1-0.3-0.3-0.5-0.7-0.5H1.4v-2.8h3.8c0.3,0,0.6-0.2,0.7-0.5c0.2-0.8,0.7-2.8,1.3-3.8c0.2-0.3,0.1-0.6-0.1-0.8L4.3,7.3l2.9-2.9
	L9.9,7c0.2,0.2,0.6,0.3,0.8,0.1c1-0.6,3.1-1.1,3.8-1.3c0.3-0.1,0.5-0.4,0.5-0.7V1.4h2.8v3.8c0,0.3,0.2,0.6,0.5,0.7
	c1.2,0.3,2.9,0.7,3.8,1.3c0.3,0.2,0.6,0.1,0.8-0.1l2.7-2.7l2.9,2.9L26,9.9c-0.2,0.2-0.3,0.6-0.1,0.8c0.6,1,1.1,3.1,1.3,3.8
	c0.1,0.3,0.3,0.5,0.7,0.5h3.8L31.6,17.9z M16.5,9.6c-3.8,0-6.9,3.1-6.9,6.9s3.1,6.9,6.9,6.9s6.9-3.1,6.9-6.9S20.3,9.6,16.5,9.6z
	 M16.5,22c-3,0-5.5-2.5-5.5-5.5s2.5-5.5,5.5-5.5s5.5,2.5,5.5,5.5S19.5,22,16.5,22z"/>
</svg>
