<?xml version="1.0" encoding="utf-8"?>
<!-- Generator: Adobe Illustrator 19.1.0, SVG Export Plug-In . SVG Version: 6.00 Build 0)  -->
<svg version="1.1" id="Layer_1" xmlns="http://www.w3.org/2000/svg" xmlns:xlink="http://www.w3.org/1999/xlink" x="0px" y="0px"
	 viewBox="0 0 31.6 33" style="enable-background:new 0 0 31.6 33;" xml:space="preserve">
<style type="text/css">
	.st0{fill:none;stroke:#010101;stroke-linecap:round;stroke-linejoin:round;stroke-miterlimit:10;}
	.st1{fill:none;stroke:#010101;stroke-linejoin:round;stroke-miterlimit:10;}
	.st2{fill:#FFFFFF;}
	.st3{fill:#F05323;}
	.st4{opacity:0.5;}
	.st5{fill:#FFFFFF;stroke:#E7E7E7;stroke-miterlimit:10;}
	.st6{fill:#333333;}
	.st7{fill:none;stroke:#F05323;stroke-width:2;stroke-miterlimit:10;}
	.st8{fill:#010101;}
</style>
<path class="st2" d="M30.9,4.1h-9.6V0.7C21.3,0.3,21,0,20.6,0h-11C9.2,0,8.9,0.3,8.9,0.7v3.4H0.7C0.3,4.1,0,4.4,0,4.8
	s0.3,0.7,0.7,0.7h2.8v26.8c0,0.4,0.3,0.7,0.7,0.7h22c0.4,0,0.7-0.3,0.7-0.7V5.5h4.1c0.4,0,0.7-0.3,0.7-0.7S31.3,4.1,30.9,4.1z
	 M10.3,1.4h9.6v2.8h-9.6V1.4z M25.4,31.6H4.8V5.5h20.6V31.6z M9.6,8.9c-0.4,0-0.7,0.3-0.7,0.7v16.5c0,0.4,0.3,0.7,0.7,0.7
	c0.4,0,0.7-0.3,0.7-0.7V9.6C10.3,9.2,10,8.9,9.6,8.9z M15.1,8.9c-0.4,0-0.7,0.3-0.7,0.7v16.5c0,0.4,0.3,0.7,0.7,0.7
	c0.4,0,0.7-0.3,0.7-0.7V9.6C15.8,9.2,15.5,8.9,15.1,8.9z M19.9,9.6v16.5c0,0.4,0.3,0.7,0.7,0.7c0.4,0,0.7-0.3,0.7-0.7V9.6
	c0-0.4-0.3-0.7-0.7-0.7C20.2,8.9,19.9,9.2,19.9,9.6z"/>
</svg>
