<?xml version="1.0" encoding="utf-8"?>
<!-- Generator: Adobe Illustrator 19.1.0, SVG Export Plug-In . SVG Version: 6.00 Build 0)  -->
<svg version="1.1" id="Layer_1" xmlns="http://www.w3.org/2000/svg" xmlns:xlink="http://www.w3.org/1999/xlink" x="0px" y="0px"
	 viewBox="0 0 33 33" style="enable-background:new 0 0 33 33;" xml:space="preserve">
<style type="text/css">
	.st0{fill:none;stroke:#010101;stroke-linecap:round;stroke-linejoin:round;stroke-miterlimit:10;}
	.st1{fill:none;stroke:#010101;stroke-linejoin:round;stroke-miterlimit:10;}
	.st2{fill:#FFFFFF;}
	.st3{fill:#F05323;}
	.st4{opacity:0.5;}
	.st5{fill:#FFFFFF;stroke:#E7E7E7;stroke-miterlimit:10;}
	.st6{fill:#333333;}
	.st7{fill:none;stroke:#F05323;stroke-width:2;stroke-miterlimit:10;}
	.st8{fill:#010101;}
</style>
<g>
	<g>
		<path class="st2" d="M18.6,19.2h-6.9c-0.2,0-0.4,0.1-0.5,0.2l-4.3,4.3v-3.8c0-0.4-0.3-0.7-0.7-0.7H1.4V1.4h27.5v11
			c0,0.4,0.3,0.7,0.7,0.7c0.4,0,0.7-0.3,0.7-0.7V0.7c0-0.4-0.3-0.7-0.7-0.7H0.7C0.3,0,0,0.3,0,0.7v19.2c0,0.4,0.3,0.7,0.7,0.7h4.8
			v4.8c0,0.3,0.2,0.5,0.4,0.6l0.3,0.1c0.2,0,0.4-0.1,0.5-0.2l5.3-5.3h6.6c0.4,0,0.7-0.3,0.7-0.7C19.2,19.6,18.9,19.2,18.6,19.2z
			 M32.3,22h-1.4v-0.7c0-2.7-2.2-4.8-4.8-4.8s-4.8,2.2-4.8,4.8V22h-1.4c-0.4,0-0.7,0.3-0.7,0.7v9.6c0,0.4,0.3,0.7,0.7,0.7h12.4
			c0.4,0,0.7-0.3,0.7-0.7v-9.6C33,22.3,32.7,22,32.3,22z M22.7,21.3c0-1.9,1.5-3.4,3.4-3.4s3.4,1.5,3.4,3.4V22h-6.9V21.3z
			 M31.6,31.6h-11v-8.2h11V31.6z M26.1,24.8c-0.8,0-1.4,0.6-1.4,1.4c0,0.5,0.3,0.9,0.7,1.2v2.3c0,0.4,0.3,0.7,0.7,0.7
			c0.4,0,0.7-0.3,0.7-0.7v-2.3c0.4-0.2,0.7-0.7,0.7-1.2C27.5,25.4,26.9,24.8,26.1,24.8z"/>
	</g>
</g>
</svg>
