<?xml version="1.0" encoding="utf-8"?>
<!-- Generator: Adobe Illustrator 19.1.0, SVG Export Plug-In . SVG Version: 6.00 Build 0)  -->
<svg version="1.1" id="Layer_1" xmlns="http://www.w3.org/2000/svg" xmlns:xlink="http://www.w3.org/1999/xlink" x="0px" y="0px"
	 viewBox="0 0 33 33" style="enable-background:new 0 0 33 33;" xml:space="preserve">
<style type="text/css">
	.st0{fill:none;stroke:#010101;stroke-linecap:round;stroke-linejoin:round;stroke-miterlimit:10;}
	.st1{fill:none;stroke:#010101;stroke-linejoin:round;stroke-miterlimit:10;}
	.st2{fill:#FFFFFF;}
	.st3{fill:#F05323;}
	.st4{opacity:0.5;}
	.st5{fill:#FFFFFF;stroke:#E7E7E7;stroke-miterlimit:10;}
	.st6{fill:#333333;}
	.st7{fill:none;stroke:#F05323;stroke-width:2;stroke-miterlimit:10;}
	.st8{fill:#010101;}
</style>
<path class="st2" d="M16.5,0C7.4,0,0,7.4,0,16.5S7.4,33,16.5,33S33,25.6,33,16.5S25.6,0,16.5,0z M16.5,31.6
	c-8.3,0-15.1-6.8-15.1-15.1S8.2,1.4,16.5,1.4s15.1,6.8,15.1,15.1S24.8,31.6,16.5,31.6z M22,12.4c0-3-2.5-5.5-5.5-5.5S11,9.3,11,12.4
	c0,1.9,1,3.7,2.7,4.7l-1.3,8.3c0,0.2,0,0.4,0.2,0.6c0.1,0.2,0.3,0.2,0.5,0.2h6.9c0.2,0,0.4-0.1,0.5-0.2c0.1-0.2,0.2-0.4,0.2-0.6
	l-1.3-8.3C21,16.1,22,14.3,22,12.4z M18.3,16.1c-0.3,0.1-0.4,0.4-0.4,0.7l1.2,7.9h-5.3l1.2-7.9c0-0.3-0.1-0.6-0.4-0.7
	c-1.4-0.7-2.3-2.1-2.3-3.7c0-2.3,1.9-4.1,4.1-4.1s4.1,1.9,4.1,4.1C20.6,14,19.7,15.4,18.3,16.1z"/>
</svg>
