<?xml version="1.0" encoding="utf-8"?>
<!-- Generator: Adobe Illustrator 19.1.0, SVG Export Plug-In . SVG Version: 6.00 Build 0)  -->
<svg version="1.1" id="Layer_1" xmlns="http://www.w3.org/2000/svg" xmlns:xlink="http://www.w3.org/1999/xlink" x="0px" y="0px"
	 viewBox="0 0 60 60" style="enable-background:new 0 0 60 60;" xml:space="preserve">
<style type="text/css">
	.st0{fill:none;stroke:#010101;stroke-linecap:round;stroke-linejoin:round;stroke-miterlimit:10;}
	.st1{fill:none;stroke:#010101;stroke-linejoin:round;stroke-miterlimit:10;}
	.st2{fill:#FFFFFF;}
	.st3{fill:#F05323;}
	.st4{opacity:0.5;}
	.st5{fill:#FFFFFF;stroke:#E7E7E7;stroke-miterlimit:10;}
	.st6{fill:#333333;}
	.st7{fill:none;stroke:#F05323;stroke-width:2;stroke-miterlimit:10;}
	.st8{fill:#010101;}
</style>
<g>
	<g class="st4">
		<g>
			<path class="st2" d="M30,0C13.5,0,0,13.5,0,30s13.5,30,30,30s30-13.5,30-30S46.5,0,30,0z M30,57.4C14.9,57.4,2.6,45.1,2.6,30
				S14.9,2.6,30,2.6S57.4,14.9,57.4,30S45.1,57.4,30,57.4z M30,14.3c-5,0-9.1,4.1-9.1,9.1c0,0.7,0.6,1.3,1.3,1.3
				c0.7,0,1.3-0.6,1.3-1.3c0-3.6,2.9-6.5,6.5-6.5s6.5,2.9,6.5,6.5S33.6,30,30,30c-0.7,0-1.3,0.6-1.3,1.3v7.8c0,0.7,0.6,1.3,1.3,1.3
				c0.7,0,1.3-0.6,1.3-1.3v-6.6c4.4-0.6,7.8-4.4,7.8-9C39.1,18.4,35,14.3,30,14.3z"/>
			<circle class="st2" cx="30" cy="45.7" r="2.6"/>
		</g>
	</g>
</g>
</svg>
