<?xml version="1.0" encoding="utf-8"?>
<!-- Generator: Adobe Illustrator 19.1.0, SVG Export Plug-In . SVG Version: 6.00 Build 0)  -->
<svg version="1.1" id="Layer_1" xmlns="http://www.w3.org/2000/svg" xmlns:xlink="http://www.w3.org/1999/xlink" x="0px" y="0px"
	 viewBox="0 0 33 33" style="enable-background:new 0 0 33 33;" xml:space="preserve">
<style type="text/css">
	.st0{fill:none;stroke:#010101;stroke-linecap:round;stroke-linejoin:round;stroke-miterlimit:10;}
	.st1{fill:none;stroke:#010101;stroke-linejoin:round;stroke-miterlimit:10;}
	.st2{fill:#FFFFFF;}
	.st3{fill:#F05323;}
	.st4{opacity:0.5;}
	.st5{fill:#FFFFFF;stroke:#E7E7E7;stroke-miterlimit:10;}
	.st6{fill:#333333;}
	.st7{fill:none;stroke:#F05323;stroke-width:2;stroke-miterlimit:10;}
	.st8{fill:#010101;}
</style>
<g>
	<path class="st2" d="M16.5,0C7.4,0,0,7.4,0,16.5c0,4.4,1.7,8.5,4.8,11.6c3.1,3.2,7.3,4.9,11.7,4.9c4.4,0,8.6-1.7,11.7-4.9
		C31.3,25,33,20.9,33,16.5C33,7.4,25.6,0,16.5,0z M6.4,27.7c1.4-0.8,3.5-1.5,5.5-2.3c0.7-0.3,1.4-0.5,2.1-0.8
		c0.3-0.1,0.4-0.4,0.4-0.6v-3.4c0-0.3-0.2-0.5-0.5-0.6c-0.1,0-1.6-0.6-1.6-3.5c0-0.4-0.3-0.7-0.7-0.7c-0.1,0-0.2-0.3-0.2-0.7
		s0.1-0.7,0.2-0.7c0.4,0,0.7-0.3,0.7-0.7c0-0.2-0.1-0.4-0.2-0.7c-0.2-0.7-0.7-2.6-0.3-3.3c0.1-0.1,0.3-0.3,1-0.1
		c0.4,0.1,0.7-0.2,0.8-0.5c0.2-0.9,1.8-1.5,3.8-1.5s3.6,0.6,3.8,1.5c0.3,1.3-0.2,3-0.5,3.8c-0.1,0.4-0.2,0.6-0.2,0.8
		c0,0.4,0.3,0.7,0.7,0.7c0.1,0,0.2,0.3,0.2,0.7s-0.1,0.7-0.2,0.7c-0.4,0-0.7,0.3-0.7,0.7c0,2.8-1.5,3.5-1.6,3.5
		c-0.3,0.1-0.5,0.4-0.5,0.7v3.4c0,0.3,0.2,0.5,0.4,0.6c0.7,0.3,1.5,0.5,2.2,0.8c2.1,0.8,4,1.5,5.4,2.2c-2.8,2.5-6.3,3.9-10.1,3.9
		C12.7,31.6,9.2,30.2,6.4,27.7z M27.6,26.7c-1.4-0.9-3.6-1.6-6-2.5l-1.8-0.6V21c0.7-0.4,1.9-1.5,2-4c0.5-0.3,0.9-1,0.9-1.9
		c0-0.8-0.3-1.4-0.7-1.8c0.3-1,0.9-2.9,0.5-4.6c-0.5-1.9-3.1-2.6-5.1-2.6c-1.8,0-4.1,0.5-4.9,2c-1-0.1-1.5,0.4-1.8,0.7
		c-0.9,1.2-0.3,3.3,0,4.4c-0.5,0.3-0.7,1-0.7,1.8c0,0.9,0.3,1.6,0.9,1.9c0.1,2.5,1.4,3.6,2,4v2.5l-1.6,0.6c-2.2,0.8-4.5,1.6-6.1,2.6
		c-2.6-2.8-4-6.4-4-10.2c0-8.3,6.8-15.1,15.1-15.1s15.1,6.8,15.1,15.1C31.6,20.3,30.2,23.9,27.6,26.7z"/>
</g>
</svg>
