<?xml version="1.0" encoding="utf-8"?>
<!-- Generator: Adobe Illustrator 19.1.0, SVG Export Plug-In . SVG Version: 6.00 Build 0)  -->
<svg version="1.1" id="Layer_1" xmlns="http://www.w3.org/2000/svg" xmlns:xlink="http://www.w3.org/1999/xlink" x="0px" y="0px"
	 viewBox="0 0 33 28.8" style="enable-background:new 0 0 33 28.8;" xml:space="preserve">
<style type="text/css">
	.st0{fill:none;stroke:#010101;stroke-linecap:round;stroke-linejoin:round;stroke-miterlimit:10;}
	.st1{fill:none;stroke:#010101;stroke-linejoin:round;stroke-miterlimit:10;}
	.st2{fill:#FFFFFF;}
	.st3{fill:#F05323;}
	.st4{opacity:0.5;}
	.st5{fill:#FFFFFF;stroke:#E7E7E7;stroke-miterlimit:10;}
	.st6{fill:#333333;}
	.st7{fill:none;stroke:#F05323;stroke-width:2;stroke-miterlimit:10;}
	.st8{fill:#010101;}
</style>
<path class="st2" d="M18.3,17.3l-1.8-0.7V14c0.5-0.5,1.3-1.6,1.4-3.9c0.6-0.3,1-1,1-1.9c0-0.8-0.3-1.4-0.8-1.8
	c0.4-0.9,1.1-2.4,0.8-3.9C18.4,0.7,15.8,0,13.7,0c-1.9,0-4.2,0.5-5,1.9c-1,0-1.5,0.4-1.8,0.7C6.1,3.7,6.5,5.5,6.8,6.5l0.1,0.3v2.8
	c0,2.6,1.6,4,2.8,4.6v2.5l-1.7,0.6c-3.6,1.3-6.7,2.4-7.2,4.1C0,23.4,0,27.9,0,28.1c0,0.4,0.3,0.7,0.7,0.7h24.8
	c0.4,0,0.7-0.3,0.7-0.7c0-0.2,0-4.7-0.7-6.8C24.9,19.6,22,18.6,18.3,17.3z M1.4,27.4c0-1.3,0.1-4.3,0.6-5.7c0.4-1.1,3.7-2.3,6.4-3.3
	c0.7-0.3,1.5-0.5,2.2-0.8c0.3-0.1,0.4-0.4,0.4-0.6v-3.4c0-0.3-0.2-0.6-0.5-0.7c-0.1,0-2.3-0.8-2.3-3.5V6.8c0-0.2,0-0.3-0.1-0.6
	C8,5.5,7.6,4,8,3.4C8,3.4,8.3,3.2,9,3.3c0.4,0.1,0.7-0.2,0.8-0.5C10,2,11.7,1.4,13.7,1.4s3.7,0.6,3.9,1.4c0.3,1.1-0.4,2.4-0.7,3.1
	c-0.2,0.4-0.3,0.6-0.3,0.9c0,0.4,0.3,0.7,0.7,0.7c0.2,0,0.3,0.4,0.3,0.7c0,0.3-0.1,0.7-0.3,0.7c-0.4,0-0.7,0.3-0.7,0.7
	c0,2.8-1.1,3.5-1,3.5c-0.2,0.1-0.3,0.3-0.3,0.6v3.4c0,0.3,0.2,0.5,0.4,0.6c0.8,0.3,1.6,0.6,2.3,0.8c2.9,1,5.9,2.1,6.3,3.2
	c0.5,1.4,0.6,4.3,0.6,5.7L1.4,27.4L1.4,27.4z M32.3,21.3c-0.5-1.6-3.2-3.2-8.9-5.4v-1.3c0.5-0.5,1.3-1.6,1.4-3.9
	c0.3-0.1,0.5-0.3,0.7-0.6c0.2-0.4,0.4-0.8,0.4-1.3c0-0.8-0.3-1.4-0.8-1.8c0.4-1,1.2-2.6,0.8-4.1c-0.2-1-1.3-2-2.6-2.5
	C22,0,20.7,0.1,19.7,0.7c-0.3,0.2-0.4,0.6-0.2,1c0.2,0.3,0.6,0.4,1,0.2c0.8-0.5,1.6-0.4,2.2-0.2c1,0.4,1.6,1.1,1.7,1.5
	c0.3,1.1-0.4,2.6-0.8,3.3c-0.2,0.4-0.3,0.6-0.3,0.9c0,0.2,0.1,0.4,0.2,0.5c0.1,0.1,0.3,0.2,0.5,0.2c0.2,0,0.3,0.4,0.3,0.7
	c0,0.2-0.1,0.4-0.1,0.6c-0.1,0.1-0.1,0.1-0.2,0.1c-0.4,0-0.7,0.3-0.7,0.7c0,2.8-1.1,3.5-1,3.5c-0.2,0.1-0.3,0.3-0.3,0.6v2.1
	c0,0.3,0.2,0.5,0.4,0.6c5.3,2,8.2,3.6,8.6,4.7c0.5,1.4,0.6,4.3,0.6,5.7h-2.7c-0.4,0-0.7,0.3-0.7,0.7c0,0.4,0.3,0.7,0.7,0.7h3.4
	c0.4,0,0.7-0.3,0.7-0.7C33,27.9,33,23.4,32.3,21.3z"/>
</svg>
