<?xml version="1.0" encoding="UTF-8"?>
<!DOCTYPE svg PUBLIC "-//W3C//DTD SVG 1.1//EN" "http://www.w3.org/Graphics/SVG/1.1/DTD/svg11.dtd">
<svg version="1.1" xmlns="http://www.w3.org/2000/svg" xmlns:xlink="http://www.w3.org/1999/xlink" x="0" y="0" width="1024" height="1024" viewBox="0, 0, 1024, 1024">



  
  <g id="Background"/>
  <g id="Layer_1">
    <g>
      <path d="M172.283,13.5 L849.717,13.5 C938.515,13.5 1010.5,85.485 1010.5,174.283 L1010.5,851.717 C1010.5,940.515 938.515,1012.5 849.717,1012.5 L172.283,1012.5 C83.485,1012.5 11.5,940.515 11.5,851.717 L11.5,174.283 C11.5,85.485 83.485,13.5 172.283,13.5 z" fill="#F64402"/>
      <path d="M172.283,13.5 L849.717,13.5 C938.515,13.5 1010.5,85.485 1010.5,174.283 L1010.5,851.717 C1010.5,940.515 938.515,1012.5 849.717,1012.5 L172.283,1012.5 C83.485,1012.5 11.5,940.515 11.5,851.717 L11.5,174.283 C11.5,85.485 83.485,13.5 172.283,13.5 z" fill-opacity="0" stroke="#FFFFFF" stroke-width="15"/>
    </g>
    <g>
      <path d="M512.5,906 C289.653,906 109,725.347 109,502.5 C109,279.653 289.653,99 512.5,99 C735.347,99 916,279.653 916,502.5 C916,725.347 735.347,906 512.5,906 z" fill="#F64502"/>
      <path d="M512.5,906 C289.653,906 109,725.347 109,502.5 C109,279.653 289.653,99 512.5,99 C735.347,99 916,279.653 916,502.5 C916,725.347 735.347,906 512.5,906 z" fill-opacity="0" stroke="#FFFFFF" stroke-width="40"/>
    </g>
    <text transform="matrix(1, 0, 0, 1, 462.427, 503.833)">
      <tspan x="-258.162" y="87" font-family="SanFranciscoText-Regular" font-size="255" fill="#FFFFFF">PEM</tspan>
    </text>
    <path d="M770.356,551.833 C748.357,551.833 730.523,533.999 730.523,512 C730.523,490.001 748.357,472.167 770.356,472.167 C792.355,472.167 810.189,490.001 810.189,512 C810.189,533.999 792.355,551.833 770.356,551.833 z" fill="#FFFFFF"/>
  </g>
</svg>
